# xmcd
#
# Track frame offsets:
#	150
#	16733
#	31523
#	46020
#	59193
#	74355
#	92198
#	104863
#	117840
#	130550
#	141823
#	161578
#	177388
#	191325
#	201363
#	215798
#
# Disc length: 3058 seconds
#
# Revision: 1
# Processed by: cddbd v1.5PL3 Copyright (c) Steve Scherf et al.
# Submitted via: EasyCDDAExtractor 5.0.6
#
DISCID=e80bf010
DTITLE=鳳飛飛 - 回顧篇1
DYEAR=1986
DGENRE=POP
TTITLE0=我是一片雲
TTITLE1=星語
TTITLE2=奔向彩虹
TTITLE3=流水年華
TTITLE4=松林的低語
TTITLE5=一顆紅豆
TTITLE6=月朦朧,鳥朦朧
TTITLE7=幸福
TTITLE8=大自然
TTITLE9=我願
TTITLE10=晨霧
TTITLE11=雨夜花之戀
TTITLE12=溫馨的回憶
TTITLE13=彩虹的夢
TTITLE14=懷念的鐘聲
TTITLE15=夢難留
EXTD=
EXTT0=
EXTT1=
EXTT2=
EXTT3=
EXTT4=
EXTT5=
EXTT6=
EXTT7=
EXTT8=
EXTT9=
EXTT10=
EXTT11=
EXTT12=
EXTT13=
EXTT14=
EXTT15=
PLAYORDER=
